<?xml version="1.0" standalone="no"?>
<!DOCTYPE svg PUBLIC "-//W3C//DTD SVG 1.1//EN" "http://www.w3.org/Graphics/SVG/1.1/DTD/svg11.dtd" >
<svg xmlns="http://www.w3.org/2000/svg">
<metadata></metadata>
<defs>
<font id="senticosansdtbold" horiz-adv-x="1208" >
<font-face units-per-em="2048" ascent="1638" descent="-410" />
<missing-glyph horiz-adv-x="491" />
<glyph horiz-adv-x="0" />
<glyph horiz-adv-x="682" />
<glyph unicode=" "  horiz-adv-x="491" />
<glyph unicode="&#x09;" horiz-adv-x="491" />
<glyph unicode="&#xa0;" horiz-adv-x="491" />
<glyph unicode="!" horiz-adv-x="581" d="M127 162q0 39 1.5 60.5t6.5 45t15.5 34.5t29 21t45.5 13.5t66 3.5t66 -3.5t45.5 -13.5t29 -21t15.5 -34.5t6.5 -45t1.5 -60.5t-1.5 -60.5t-6.5 -45t-15.5 -34.5t-29 -21t-45.5 -13.5t-66 -3.5t-66 3.5t-45.5 13.5t-29 21t-15.5 34.5t-6.5 45t-1.5 60.5zM129 1401h324 l-9 -623l-32 -346h-242l-35 346z" />
<glyph unicode="&#x22;" horiz-adv-x="903" d="M125 1313q-3 79 8 93.5t72 14.5h86q60 0 70.5 -15t7.5 -95l-13 -344q-1 -35 -11.5 -42t-61.5 -7h-68q-54 0 -65.5 7t-12.5 44zM534 1352.5q0 13.5 0.5 28t5 20t8.5 11t15 7t21 2t30 0.5h86q60 0 70.5 -15t7.5 -95l-12 -344q-1 -35 -12 -42t-62 -7h-67q-54 0 -65.5 7 t-12.5 44l-12 344q-1 26 -1 39.5z" />
<glyph unicode="#" horiz-adv-x="1318" d="M41 401l35 215h200l35 242h-211l35 215h209l47 326h234l-47 -326h258l47 326h233l-47 -326h197l-31 -215h-197l-32 -242h200l-30 -215h-201l-47 -329h-240l47 329h-252l-47 -329h-239l47 329h-203zM514 616h254l35 242h-256z" />
<glyph unicode="$" d="M129 995q0 177 84.5 276t280.5 120v215h229v-217q174 -19 301 -60l-27 -272q-138 59 -274 80v-324q132 -36 205 -80t111 -121.5t38 -201.5q0 -191 -79.5 -292t-274.5 -126v-217h-229v213q-190 15 -363 80l39 266q170 -72 324 -90v344q-97 24 -159.5 51.5t-112 73.5 t-71.5 115t-22 167zM430 995q0 -45 12.5 -68.5t51.5 -41.5v239q-64 -34 -64 -129zM723 266q53 38 53 131q0 44 -11 70t-42 47v-248z" />
<glyph unicode="%" horiz-adv-x="1925" d="M63 1018q0 63 5 109.5t17.5 95.5t38 83t64.5 62t98 41.5t136 13.5q92 0 158.5 -21t104.5 -55t60 -89.5t28.5 -109.5t6.5 -130t-6.5 -130.5t-28.5 -109.5t-60 -89t-104.5 -55.5t-158.5 -21.5t-158.5 21.5t-105 55.5t-60.5 89t-28.5 109.5t-6.5 130.5zM311 1018 q0 -56 1 -82t6.5 -56.5t17.5 -42.5t32.5 -20t53.5 -8q18 0 32.5 2.5t25.5 5.5t19 12t13.5 16t9.5 23t6 27t3 35t1 40v48v48t-1 40t-3 35t-6 27t-9.5 23t-13.5 16t-19 12t-25.5 5.5t-32.5 2.5q-33 0 -53.5 -8t-32.5 -20t-17.5 -42.5t-6.5 -56.5t-1 -82zM559 45l594 1403 l215 -72l-598 -1405zM1145 383q0 76 6.5 130t28.5 109.5t60 89.5t104.5 55t158.5 21q77 0 136 -13.5t98 -41.5t64.5 -62t38 -83t17.5 -95.5t5 -109.5q0 -76 -6.5 -130.5t-28.5 -109.5t-60.5 -89t-105 -55.5t-158.5 -21.5t-158.5 21.5t-104.5 55.5t-60 89t-28.5 109.5 t-6.5 130.5zM1393 335q0 -16 1 -40t3 -35t6 -27t9.5 -23t13.5 -16t19 -12t25.5 -5.5t32.5 -2.5q33 0 53.5 8t32.5 20t17.5 42.5t6.5 56.5t1 82t-1 82t-6.5 56.5t-17.5 42.5t-32.5 20t-53.5 8q-18 0 -32.5 -2.5t-25.5 -5.5t-19 -12t-13.5 -16t-9.5 -23t-6 -27t-3 -35t-1 -40 v-48v-48z" />
<glyph unicode="&#x26;" horiz-adv-x="1376" d="M76 373q0 128 64.5 223.5t176.5 173.5q-68 83 -102.5 153t-34.5 144q0 176 105 264t303 88q189 0 296 -83t107 -246q0 -120 -60 -201t-194 -170l201 -199q41 64 102 203l258 -113q-88 -191 -159 -293l180 -174l-217 -182l-162 160q-90 -71 -184.5 -106t-227.5 -35 q-233 0 -342.5 105.5t-109.5 287.5zM389 377q0 -63 35 -101t100 -38q134 0 230 71l-256 262q-109 -81 -109 -194zM475 1073q0 -35 20 -71t66 -91q65 35 99 75t34 97q0 42 -25 63t-81 21t-84.5 -25t-28.5 -69z" />
<glyph unicode="'" horiz-adv-x="495" d="M125 1313q-3 79 8 93.5t72 14.5h86q60 0 70.5 -15t7.5 -95l-13 -344q-1 -35 -11.5 -42t-61.5 -7h-68q-54 0 -65.5 7t-12.5 44z" />
<glyph unicode="(" horiz-adv-x="659" d="M96 614q0 296 86.5 546t231.5 442l245 -99q-136 -210 -198 -415.5t-62 -473.5q0 -267 62 -472.5t198 -415.5l-245 -97q-144 191 -231 442t-87 543z" />
<glyph unicode=")" horiz-adv-x="659" d="M-2 -274q137 209 198.5 414.5t61.5 473.5q0 269 -61.5 474.5t-198.5 414.5l248 99q144 -191 229.5 -441t85.5 -547t-85.5 -545.5t-229.5 -439.5z" />
<glyph unicode="*" horiz-adv-x="980" d="M54 1077q3 13 6.5 27t13.5 45q22 66 31 76.5t38 1.5q24 -8 54 -21l219 -90l-19 238q-2 25 -2 57q0 31 12.5 36t81.5 5q71 0 84 -5.5t13 -35.5q0 -32 -2 -57l-19 -238l219 90q30 13 54 21q29 9 38 -1.5t31 -76.5q10 -31 13.5 -45t6.5 -27t-1.5 -17.5t-10 -8t-18.5 -7.5 q-41 -12 -55 -14l-230 -55l154 -182q6 -7 35 -43q14 -18 13.5 -27t-12.5 -20.5t-54 -40.5q-61 -46 -73 -48q-12 -1 -26 20q-1 1 -2 3q-1 1 -13.5 17t-19.5 30l-125 201l-122 -201q-7 -14 -19.5 -30t-13.5 -17q-16 -25 -29.5 -22t-65.5 42q-4 3 -6 5q-42 29 -54 40.5 t-12.5 20.5t13.5 27q29 36 35 43l154 182l-230 55q-14 2 -55 14q-13 4 -18.5 7.5t-10 8t-1.5 17.5z" />
<glyph unicode="+" horiz-adv-x="1024" d="M109 465v229h284v289h236v-289h286v-229h-286v-289h-236v289h-284z" />
<glyph unicode="," horiz-adv-x="536" d="M98 -174q0 17 13 47l41 107q6 15 6 28q0 12 -11 19q-38 23 -38 135q0 39 1 60.5t6.5 45t15.5 34.5t28.5 21t45.5 13.5t66 3.5t66 -3.5t45.5 -13.5t29 -21t15.5 -34.5t6.5 -45t1.5 -60.5v-53q0 -65 -22 -117l-90 -209q-11 -24 -29 -31.5t-47 -7.5q-19 0 -68 18 q-55 22 -68.5 33t-13.5 31z" />
<glyph unicode="-" horiz-adv-x="745" d="M76 422v268h594v-268h-594z" />
<glyph unicode="." horiz-adv-x="536" d="M104 162q0 39 1.5 60.5t6.5 45t15.5 34.5t29 21t45.5 13.5t66 3.5t66 -3.5t45.5 -13.5t29 -21t15.5 -34.5t6.5 -45t1.5 -60.5t-1.5 -60.5t-6.5 -45t-15.5 -34.5t-29 -21t-45.5 -13.5t-66 -3.5t-66 3.5t-45.5 13.5t-29 21t-15.5 34.5t-6.5 45t-1.5 60.5z" />
<glyph unicode="/" horiz-adv-x="1019" d="M66 -131l626 1567l250 -101l-627 -1566z" />
<glyph unicode="0" d="M94 618v160q0 64 1.5 109.5t7 104t16 100t29 89t44.5 80.5t64.5 65t87.5 51t115 30.5t145 11.5t145 -11.5t115 -30.5t87.5 -51t64.5 -65t44.5 -80.5t29 -89t16 -100t7 -104t1.5 -109.5v-160q0 -64 -1.5 -109.5t-7 -104t-16 -100t-29 -89t-44.5 -80.5t-64.5 -65t-87.5 -51 t-115 -30.5t-145 -11.5t-145 11.5t-115 30.5t-87.5 51t-64.5 65t-44.5 80.5t-29 89t-16 100t-7 104t-1.5 109.5zM412 592q0 -88 1.5 -127.5t10.5 -93t29 -75t57 -38t94 -16.5q48 0 81.5 8.5t54.5 33t33 46t17 72.5t6 84.5t1 108.5v21v164v21q0 74 -1 108.5t-6 85t-17 72 t-33 46.5t-54.5 33.5t-81.5 8.5q-57 0 -94 -16.5t-57 -38t-29 -75.5t-10.5 -93.5t-1.5 -127.5v-24v-164v-24z" />
<glyph unicode="1" d="M197 1214l360 187h258v-1139h236v-262h-789v262h240v797l-230 -113z" />
<glyph unicode="2" d="M154 1335q113 47 214 67.5t224 20.5q244 0 351.5 -93.5t107.5 -278.5q0 -135 -52 -247t-170 -249q-41 -48 -262 -293h488v-262h-893v248q267 270 393 416q100 115 138 194t38 170q0 65 -37 96t-127 31q-165 0 -383 -86z" />
<glyph unicode="3" d="M137 47l29 260q205 -74 371 -74q117 0 158.5 34.5t41.5 123.5v47q0 77 -43.5 107t-136.5 30h-272v261h213q123 0 162.5 33.5t39.5 125.5v43q0 71 -37.5 100t-136.5 29q-131 0 -342 -75l-28 262q107 33 194 50t193 17q240 0 355.5 -85.5t115.5 -266.5v-47 q0 -102 -31 -179.5t-94 -109.5q166 -70 166 -299v-26q0 -216 -120.5 -323.5t-389.5 -107.5q-214 0 -408 70z" />
<glyph unicode="4" d="M41 285v262l606 854h342v-850h176v-266h-176v-285h-313v285h-635zM375 551h301v453z" />
<glyph unicode="5" d="M141 45l35 268q191 -71 363 -71q112 0 153 37.5t41 138.5v26q0 103 -40.5 136.5t-172.5 33.5q-102 0 -239 -18h-91l31 805h776v-266h-495l-10 -269q70 6 102 6q140 0 229 -23t139.5 -77t69.5 -129t19 -192v-37q0 -222 -118.5 -329.5t-389.5 -107.5q-207 0 -402 68z" />
<glyph unicode="6" d="M117 612v127q0 172 26.5 293.5t90 211.5t173.5 133.5t271 43.5q149 0 344 -39l-23 -262q-143 33 -284 33q-89 0 -145 -14.5t-87.5 -49t-43 -83t-11.5 -125.5v-29q135 33 252 33q216 0 314 -105t98 -340q0 -106 -24.5 -187t-79 -145t-151.5 -97.5t-233 -33.5q-66 0 -122 8 t-100 25t-80 39t-62.5 53t-46.5 63t-33 75t-22 83t-13.5 91t-6 96t-1.5 102zM426 559q0 -54 1 -89t5 -72.5t12 -60t20.5 -43.5t32 -32t46.5 -17.5t63 -6.5q101 0 139.5 46t38.5 162q0 101 -30 138t-105 37q-110 0 -223 -37v-25z" />
<glyph unicode="7" d="M162 1137v264h923v-223l-512 -1178h-331l501 1137h-581z" />
<glyph unicode="8" d="M100 424q0 111 37.5 184t124.5 125q-78 57 -101.5 125.5t-23.5 171.5q0 206 105.5 298.5t359.5 92.5t360.5 -92t106.5 -297q0 -112 -25.5 -178.5t-101.5 -120.5q88 -52 126 -124t38 -183q0 -124 -22 -204.5t-79 -138t-154.5 -82t-248.5 -24.5t-249.5 25.5t-154 83.5 t-77 137.5t-21.5 200.5zM414 424q0 -118 38.5 -155.5t149.5 -37.5q64 0 101 9t57.5 34t26.5 58t6 92q0 79 -35.5 110t-157.5 52q-83 -15 -122 -33t-51.5 -45.5t-12.5 -83.5zM444 1016q0 -94 31 -132t129 -55q56 10 88 23t47.5 38t19 50.5t3.5 75.5q0 35 -1.5 53.5t-10 40.5 t-25 32t-47 17.5t-76.5 7.5q-56 0 -90 -10t-48 -34t-17 -44.5t-3 -62.5z" />
<glyph unicode="9" d="M117 958q0 84 14.5 152t49.5 127t90 99t139 62.5t194 22.5q94 0 167.5 -18t124.5 -47t87.5 -77t57 -97.5t32.5 -119.5t15.5 -131.5t3.5 -144.5v-127q0 -137 -16.5 -240.5t-56 -189t-103.5 -139.5t-160.5 -83.5t-225.5 -29.5q-149 0 -344 39l23 263q143 -33 285 -33 q89 0 145 14.5t87.5 49t42.5 83t11 125.5v29q-135 -33 -252 -33q-216 0 -313.5 104.5t-97.5 339.5zM424 952q0 -101 30 -137.5t105 -36.5q110 0 223 37v25q0 54 -1 89t-5 72.5t-12 60t-20.5 43.5t-32 32t-46.5 17.5t-63 6.5q-100 0 -139 -46.5t-39 -162.5z" />
<glyph unicode=":" horiz-adv-x="536" d="M104 162q0 39 1.5 60.5t6.5 45t15.5 34.5t29 21t45.5 13.5t66 3.5t66 -3.5t45.5 -13.5t29 -21t15.5 -34.5t6.5 -45t1.5 -60.5t-1.5 -60.5t-6.5 -45t-15.5 -34.5t-29 -21t-45.5 -13.5t-66 -3.5t-66 3.5t-45.5 13.5t-29 21t-15.5 34.5t-6.5 45t-1.5 60.5zM104 786 q0 47 2 71.5t10.5 49t26.5 35t48 17t77 6.5t77 -6.5t48 -17t26.5 -35t10.5 -49t2 -71.5q0 -39 -1.5 -60.5t-6.5 -45t-15.5 -34.5t-29 -21t-45.5 -13.5t-66 -3.5t-66 3.5t-45.5 13.5t-29 21t-15.5 34.5t-6.5 45t-1.5 60.5z" />
<glyph unicode=";" horiz-adv-x="536" d="M98 -174q0 17 13 47l41 107q6 15 6 28q0 12 -11 19q-38 23 -38 135q0 39 1 60.5t6.5 45t15.5 34.5t28.5 21t45.5 13.5t66 3.5t66 -3.5t45.5 -13.5t29 -21t15.5 -34.5t6.5 -45t1.5 -60.5v-53q0 -65 -22 -117l-90 -209q-11 -24 -29 -31.5t-47 -7.5q-19 0 -68 18 q-55 22 -68.5 33t-13.5 31zM104 786q0 47 2 71.5t10.5 49t26.5 35t48 17t77 6.5t77 -6.5t48 -17t26.5 -35t10.5 -49t2 -71.5q0 -39 -1.5 -60.5t-6.5 -45t-15.5 -34.5t-29 -21t-45.5 -13.5t-66 -3.5t-66 3.5t-45.5 13.5t-29 21t-15.5 34.5t-6.5 45t-1.5 60.5z" />
<glyph unicode="&#x3c;" horiz-adv-x="1024" d="M109 483v191l694 393l112 -201l-522 -286l522 -289l-112 -201z" />
<glyph unicode="=" horiz-adv-x="1024" d="M109 272v217h806v-217h-806zM109 670v217h806v-217h-806z" />
<glyph unicode="&#x3e;" horiz-adv-x="1024" d="M109 291l522 287l-522 288l112 201l694 -393v-191l-694 -393z" />
<glyph unicode="?" horiz-adv-x="1005" d="M74 1366q197 57 385 57q250 0 357.5 -85.5t107.5 -272.5q0 -73 -12 -128.5t-40 -100t-51 -70t-67 -66.5q-51 -47 -76.5 -72.5t-67 -81t-69.5 -118.5l-250 80q37 160 168 291q10 10 42.5 41t43.5 43.5t29.5 38t25 50.5t6.5 56q0 65 -37.5 99t-132.5 34q-140 0 -334 -61z M266 162q0 39 1.5 60.5t6.5 45t15.5 34.5t29 21t45.5 13.5t66 3.5t66 -3.5t45.5 -13.5t29 -21t15.5 -34.5t6.5 -45t1.5 -60.5t-1.5 -60.5t-6.5 -45t-15.5 -34.5t-29 -21t-45.5 -13.5t-66 -3.5t-66 3.5t-45.5 13.5t-29 21t-15.5 34.5t-6.5 45t-1.5 60.5z" />
<glyph unicode="@" horiz-adv-x="1810" d="M90 592q0 400 209.5 615.5t640.5 215.5q202 0 351.5 -52t241 -150t135.5 -229.5t44 -299.5q0 -113 -20.5 -203t-66 -164.5t-128 -115.5t-197.5 -41q-91 0 -167.5 34.5t-108.5 90.5q-54 -54 -118.5 -80.5t-123.5 -26.5q-146 0 -208 63t-62 183q0 91 19.5 206.5t62.5 201.5 q51 93 141.5 135.5t237.5 42.5q126 0 325 -23l-67 -493q-12 -79 8.5 -107t81.5 -28q52 0 83 27t48.5 101.5t17.5 204.5q0 93 -15 167.5t-52.5 140.5t-97 110t-152 69t-213.5 25q-320 0 -460 -150.5t-140 -483.5q0 -305 162.5 -442.5t492.5 -137.5q162 0 342 25l27 -203 q-178 -35 -377 -35q-210 0 -374.5 48.5t-282 146.5t-179 252.5t-61.5 359.5zM762 479q0 -50 19 -70t71 -20q55 0 121 27l53 403q-25 4 -76 4q-66 0 -99.5 -21t-49.5 -67q-18 -50 -28.5 -129t-10.5 -127z" />
<glyph unicode="A" horiz-adv-x="1292" d="M4 0l457 1401h379l446 -1401h-338l-84 301h-442l-88 -301h-330zM496 559h292l-143 516z" />
<glyph unicode="B" horiz-adv-x="1185" d="M125 0v1401h522q93 0 164.5 -13t118.5 -38.5t77.5 -56.5t46 -75t21.5 -86t6 -96q0 -118 -33.5 -187.5t-115.5 -111.5q196 -65 196 -375q0 -71 -20 -132.5t-62.5 -114.5t-120 -84t-182.5 -31h-618zM446 256h207q87 0 121.5 31.5t34.5 128.5q0 94 -28 130t-117 36h-218 v-326zM446 829h187q81 0 109 35t28 125q0 39 -4 63t-16.5 47t-41 33.5t-73.5 10.5h-189v-314z" />
<glyph unicode="C" horiz-adv-x="1116" d="M96 623v155q0 90 5.5 159.5t21 139t41.5 120t68 95t100 72.5t138 43.5t181 15.5q216 0 398 -49l-33 -278q-185 49 -359 49q-98 0 -146 -29.5t-68.5 -106t-20.5 -231.5v-155q0 -58 1 -94t4.5 -77t10.5 -65t19.5 -49.5t30 -38.5t43 -24.5t58.5 -16t77 -4.5q173 0 354 49 l33 -276q-178 -50 -387 -50q-88 0 -160 10t-127 26t-97.5 45t-72 59.5t-50.5 76t-33.5 88t-19 103t-8.5 113t-2 125.5z" />
<glyph unicode="D" horiz-adv-x="1257" d="M125 0v1401h506q81 0 148.5 -10.5t118.5 -28.5t91 -47.5t67.5 -61t47 -76.5t30.5 -86t17 -97.5t8 -104t2 -111.5v-155q0 -87 -4 -152.5t-14.5 -128.5t-28.5 -108t-46.5 -85.5t-68.5 -66.5t-94.5 -45.5t-124 -28t-157.5 -8.5h-498zM446 274h164q45 0 76.5 5t57 14.5 t41 29.5t26.5 44t16 65t7 84.5t2 110.5v151q0 58 -1 96t-5 76.5t-10 61.5t-18 45t-27.5 33.5t-39.5 20.5t-53 12t-68 3h-168v-852z" />
<glyph unicode="E" horiz-adv-x="1101" d="M125 0v1401h887v-275h-566v-268h502v-274h-502v-310h566v-274h-887z" />
<glyph unicode="F" horiz-adv-x="1040" d="M125 0v1401h866v-275h-545v-288h494v-275h-494v-563h-321z" />
<glyph unicode="G" horiz-adv-x="1224" d="M96 623v155q0 87 5 153.5t19 137t38.5 121t66 96.5t99 74.5t139 45.5t184.5 17q232 0 443 -47l-29 -278q-181 47 -389 47q-45 0 -79.5 -5t-60 -17.5t-44 -27t-30.5 -41t-19.5 -50t-11 -64t-4.5 -74.5t-1 -88v-155q0 -60 1.5 -99t6.5 -82.5t14.5 -69.5t25.5 -51.5t40 -39 t58 -21.5t79 -8q66 0 160 8v211h-107v274h414v-720q-233 -48 -475 -48q-101 0 -182 18t-137 48t-97 78.5t-65.5 100t-38.5 121t-18.5 134t-4.5 146.5z" />
<glyph unicode="H" horiz-adv-x="1325" d="M125 0v1401h321v-553h433v553h321v-1401h-321v573h-433v-573h-321z" />
<glyph unicode="I" horiz-adv-x="587" d="M133 0v1401h322v-1401h-322z" />
<glyph unicode="J" horiz-adv-x="655" d="M-8 233q56 16 90.5 28t61.5 28.5t40 30t21.5 39t10 49.5t1.5 67v926h322v-926q0 -78 -7.5 -137t-21 -103t-40 -77t-55.5 -56t-77 -44t-96 -37t-120 -38q-26 -8 -40 -12z" />
<glyph unicode="K" horiz-adv-x="1316" d="M125 0v1401h321v-670l422 670h377l-459 -682l510 -719h-389l-461 668v-668h-321z" />
<glyph unicode="L" horiz-adv-x="1005" d="M125 0v1401h321v-1122h519v-279h-840z" />
<glyph unicode="M" horiz-adv-x="1583" d="M98 0l49 1401h320l324 -809l325 809h320l49 -1401h-326l-22 741l-222 -534h-249l-222 534l-22 -741h-324z" />
<glyph unicode="N" horiz-adv-x="1380" d="M125 0v1401h356l459 -879v879h315v-1401h-358l-459 846v-846h-313z" />
<glyph unicode="O" horiz-adv-x="1318" d="M96 623v155q0 80 4.5 142t18.5 132t38.5 121.5t67 101t100.5 80t143 49.5t191 19q83 0 153 -11.5t123 -31t96 -50.5t72.5 -65t51.5 -80t35 -90t20.5 -100t10 -106t3.5 -111v-155q0 -80 -5 -142t-19 -132t-38.5 -121.5t-67 -101t-101 -80.5t-143.5 -50t-191 -19 q-83 0 -153 11.5t-123 31t-95.5 50.5t-72.5 65.5t-51.5 80.5t-34.5 90t-20.5 100t-10 106t-2.5 111zM422 623q0 -62 1.5 -101t6.5 -83t15 -69.5t27 -51t42.5 -38t61 -20.5t83.5 -8t83.5 8t61 20.5t42.5 38t27.5 51t15.5 69t6.5 83t1.5 101.5v155q0 62 -1.5 101.5t-6.5 83 t-15.5 69t-27.5 51t-42.5 38t-61 20.5t-83.5 8t-83.5 -8t-61 -20.5t-42.5 -38t-27 -51t-15 -69.5t-6.5 -83t-1.5 -101v-155z" />
<glyph unicode="P" horiz-adv-x="1193" d="M125 0v1401h590q83 0 148 -13t109.5 -34t76 -57.5t49 -72t27 -89.5t12 -99t2.5 -110q0 -121 -20.5 -206.5t-68.5 -149t-131.5 -94t-205.5 -30.5h-267v-446h-321zM446 719h216q98 0 126.5 42.5t28.5 164.5q0 52 -2.5 80.5t-12 55.5t-29 38.5t-51 18.5t-81.5 7h-195v-407z " />
<glyph unicode="Q" horiz-adv-x="1318" d="M96 623v155q0 80 4.5 142t18.5 132t38.5 121.5t67 101t100.5 80t143 49.5t191 19q83 0 153 -11.5t123 -31t96 -50.5t72.5 -65t51.5 -80t35 -90t20.5 -100t10 -106t2.5 -111v-155q0 -70 -3.5 -125t-13.5 -117.5t-27.5 -110.5t-47.5 -95.5t-71 -82t-100 -61t-133 -39.5 q6 -48 23.5 -65t56.5 -17q64 0 150 22l45 -235q-145 -33 -248 -33q-101 0 -156 26.5t-83 94.5t-35 197q-91 6 -163.5 29t-122.5 55.5t-86.5 81.5t-57.5 99t-33.5 116.5t-16.5 125.5t-4 134zM422 623q0 -62 1.5 -101t6.5 -83t15 -69.5t27 -51t42.5 -38t61 -20.5t83.5 -8 t83.5 8t61 20.5t42.5 38t27.5 51t15.5 69t6.5 83t1.5 101.5v155q0 62 -1.5 101.5t-6.5 83t-15.5 69t-27.5 51t-42.5 38t-61 20.5t-83.5 8t-83.5 -8t-61 -20.5t-42.5 -38t-27 -51t-15 -69.5t-6.5 -83t-1.5 -101v-155z" />
<glyph unicode="R" horiz-adv-x="1261" d="M125 0v1401h522q121 0 205.5 -17.5t139.5 -51t86 -91.5t43 -129t12 -174q0 -179 -48.5 -285t-162.5 -147l313 -506h-369l-297 477h-123v-477h-321zM446 750h211q94 0 124 36.5t30 151.5q0 109 -28.5 148.5t-120.5 39.5h-216v-376z" />
<glyph unicode="S" horiz-adv-x="1097" d="M78 1022q0 205 114 303t381 98q210 0 418 -41l-26 -290q-223 57 -392 57q-100 0 -135 -26t-35 -93q0 -18 1.5 -33t7 -28t10 -23t17 -19.5t19.5 -16t27 -14t31 -12t38.5 -12t43 -11.5t51.5 -13q91 -23 149.5 -45.5t108.5 -55.5t77 -77.5t41.5 -108t14.5 -151.5 q0 -124 -31.5 -207.5t-99.5 -133.5t-164.5 -71t-236.5 -21q-233 0 -428 64l35 274q198 -65 397 -65q88 0 133 17t58.5 46.5t13.5 85.5q0 36 -9.5 61t-24.5 42.5t-49.5 32.5t-69 25t-97.5 26q-72 17 -121 33t-96.5 40t-76.5 54.5t-52 74t-33 101t-10 133.5z" />
<glyph unicode="T" horiz-adv-x="1081" d="M31 1126v275h1020v-275h-351v-1126h-321v1126h-348z" />
<glyph unicode="U" horiz-adv-x="1306" d="M115 485v916h321v-901q0 -129 47.5 -184.5t169.5 -55.5t168.5 55t46.5 185v901h322v-916q0 -88 -16.5 -161.5t-55.5 -138.5t-99.5 -110.5t-153.5 -71.5t-212 -26t-212 26t-154 71.5t-100 110.5t-55.5 138.5t-16.5 161.5z" />
<glyph unicode="V" horiz-adv-x="1280" d="M-8 1401h346l303 -1077l311 1077h336l-452 -1401h-412z" />
<glyph unicode="W" horiz-adv-x="1843" d="M10 1401h326l190 -942l217 942h359l217 -938l188 938h326l-320 -1401h-360l-231 965l-228 -965h-360z" />
<glyph unicode="X" horiz-adv-x="1243" d="M12 0l418 723l-391 678h354l225 -397l226 397h348l-385 -670l422 -731h-355l-256 446l-256 -446h-350z" />
<glyph unicode="Y" horiz-adv-x="1169" d="M-12 1401h348l252 -567l256 567h336l-435 -916v-485h-321v485z" />
<glyph unicode="Z" horiz-adv-x="1167" d="M86 0v248l600 889h-580v264h965v-248l-604 -889h604v-264h-985z" />
<glyph unicode="[" horiz-adv-x="653" d="M137 -365v2018h516v-232h-219v-1556h219v-230h-516z" />
<glyph unicode="\" horiz-adv-x="1019" d="M66 1335l251 101l625 -1567l-252 -100z" />
<glyph unicode="]" horiz-adv-x="653" d="M0 -135h219v1556h-219v232h516v-2018h-516v230z" />
<glyph unicode="^" horiz-adv-x="1024" d="M55 854l369 580h174l371 -580l-221 -53l-236 381l-238 -381z" />
<glyph unicode="_" horiz-adv-x="1024" d="M-4 -115h1032v-194h-1032v194z" />
<glyph unicode="`" horiz-adv-x="681" d="M68 1298l14 230l432 -223l-49 -183z" />
<glyph unicode="a" horiz-adv-x="1048" d="M80 279q0 81 16 136.5t46 91.5t84.5 56t120 27.5t163.5 7.5q72 0 119 -2v55q0 38 -4 59.5t-19.5 43t-48.5 30.5t-88 9q-150 0 -311 -48l-19 238q71 21 180 36t213 15q236 0 323 -85.5t87 -313.5v-635h-268l-25 76q-160 -96 -303 -96q-126 0 -196 79.5t-70 219.5zM381 299 q0 -46 18.5 -68t61.5 -22q84 0 168 53v133q-31 2 -58 2q-118 0 -154 -16t-36 -82z" />
<glyph unicode="b" horiz-adv-x="1112" d="M119 6v1415l313 33v-463q131 43 260 43q89 0 151.5 -26.5t99 -69.5t57 -114.5t26.5 -142.5t6 -173q0 -295 -107 -413t-372 -118q-197 0 -434 29zM432 231q35 -4 100 -4q38 0 66 5.5t48 15t33.5 28t21.5 37.5t12 52.5t5 63.5t1 79q0 59 -1 93t-6 69.5t-13.5 53t-24 33 t-38.5 20.5t-56 5q-50 0 -148 -32v-519z" />
<glyph unicode="c" horiz-adv-x="870" d="M74 508q0 111 12 190.5t42 146.5t82 107t132.5 62t192.5 22q133 0 280 -26l-27 -254q-113 30 -235 30q-103 0 -134.5 -56.5t-31.5 -221.5q0 -66 2.5 -103t11.5 -76t27 -57.5t49.5 -30.5t79.5 -12q87 0 234 35l30 -254q-165 -30 -295 -30q-137 0 -227.5 33.5t-139 104.5 t-67 162.5t-18.5 227.5z" />
<glyph unicode="d" horiz-adv-x="1126" d="M78 508q0 97 8.5 169.5t34 143t68 115t113.5 71.5t169 27q120 0 221 -24v411l314 33v-1454h-265l-20 61q-108 -79 -277 -79q-204 0 -285 126.5t-81 399.5zM391 508q0 -62 2 -100t9 -77t21 -59.5t38 -33.5t59 -13q97 0 172 68v465q-77 22 -153 22q-35 0 -60 -8t-41 -26.5 t-26 -38.5t-14.5 -55.5t-5.5 -65t-1 -78.5z" />
<glyph unicode="e" horiz-adv-x="1034" d="M78 500q0 97 9 169.5t37.5 144.5t77.5 118t132 74t198 28q119 0 200.5 -31.5t128.5 -95.5t67 -150t20 -206v-148h-557v-8q0 -104 40 -140t138 -36q156 0 346 53l23 -239q-205 -56 -412 -56q-128 0 -215.5 33.5t-138.5 102.5t-72.5 162.5t-21.5 224.5zM391 602h260v23 q0 91 -28 131.5t-97 40.5q-79 0 -107 -45t-28 -129v-21z" />
<glyph unicode="f" horiz-adv-x="751" d="M33 752v254h139v124q0 159 86.5 238.5t280.5 79.5q117 0 227 -18l-18 -248q-83 18 -148 18q-66 0 -90.5 -29t-24.5 -88v-77h232l-10 -254h-222v-752h-313v752h-139z" />
<glyph unicode="g" horiz-adv-x="1114" d="M80 508q0 146 22.5 242t79 161.5t150.5 94t239 28.5q179 0 422 -28v-1088q0 -174 -110 -256t-363 -82q-230 0 -418 51l23 246q191 -53 375 -53q108 0 144 22t36 84v88q-128 -41 -248 -41q-58 0 -105 9t-82 28t-61.5 44t-44.5 62t-30 75.5t-18 91.5t-8.5 103.5t-2.5 117.5 zM393 508q0 -61 1 -94.5t5.5 -70.5t13 -54.5t24.5 -33.5t38.5 -21t56.5 -5q62 0 148 33v518q-35 4 -100 4q-53 0 -87.5 -11t-54.5 -29t-30 -56t-12.5 -75.5t-2.5 -104.5z" />
<glyph unicode="h" horiz-adv-x="1122" d="M119 0v1421l313 33v-524q192 104 340 104q131 0 185.5 -77.5t54.5 -221.5v-735h-314v649q0 50 -18 72t-57 22q-74 0 -191 -67v-676h-313z" />
<glyph unicode="i" horiz-adv-x="563" d="M119 1278q0 57 3.5 84.5t19.5 51t48.5 31t90.5 7.5q40 0 66.5 -3t45 -13t28.5 -20.5t15.5 -33.5t6.5 -44t1 -60t-1 -60t-6.5 -44t-15.5 -33.5t-28.5 -20.5t-45 -13t-66.5 -3q-58 0 -90.5 7.5t-48.5 31t-19.5 51t-3.5 84.5zM125 0v1016h313v-1016h-313z" />
<glyph unicode="j" horiz-adv-x="563" d="M-70 -184q128 47 161.5 80t33.5 112v1008h313v-1059q0 -47 -3 -81t-13.5 -64.5t-22 -51t-38 -41.5t-51.5 -35t-73.5 -32.5t-92 -32t-117.5 -35.5zM119 1278q0 57 3.5 84.5t19.5 51t48.5 31t90.5 7.5q40 0 66.5 -3t45 -13t28.5 -20.5t15.5 -33.5t6.5 -44t1 -60t-1 -60 t-6.5 -44t-15.5 -33.5t-28.5 -20.5t-45 -13t-66.5 -3q-58 0 -90.5 7.5t-48.5 31t-19.5 51t-3.5 84.5z" />
<glyph unicode="k" horiz-adv-x="1148" d="M119 0v1421l313 33v-897l316 459h360l-340 -471l365 -545h-365l-336 526v-526h-313z" />
<glyph unicode="l" horiz-adv-x="610" d="M117 274v1147l313 33v-1167q0 -47 41 -47q40 0 94 16l49 -231q-130 -45 -274 -45q-51 0 -86 5.5t-60.5 20.5t-40 34.5t-23 56t-11 76t-2.5 101.5z" />
<glyph unicode="m" horiz-adv-x="1673" d="M119 0v1016h254l37 -101q190 115 354 115q137 0 197 -123q194 123 370 123q115 0 173.5 -84.5t58.5 -226.5v-719h-314v649q0 49 -17.5 70.5t-53.5 21.5q-34 0 -85 -20t-96 -49v-672h-313v649q0 92 -74 92q-68 0 -178 -69v-672h-313z" />
<glyph unicode="n" horiz-adv-x="1122" d="M119 0v1016h254l35 -92q193 108 364 108q131 0 185.5 -77.5t54.5 -221.5v-733h-314v645q0 52 -18 74t-57 22q-74 0 -191 -67v-674h-313z" />
<glyph unicode="o" horiz-adv-x="1097" d="M78 508q0 95 12 170t44 144t83.5 114.5t135.5 72.5t196 27t195.5 -27t135 -72t83 -114.5t43.5 -144t12 -170.5t-12 -171t-43.5 -144t-83 -114.5t-135 -72t-195.5 -26.5t-196 27t-135.5 72.5t-83.5 114.5t-44 144t-12 170zM391 508q0 -49 1 -78t6 -65.5t15 -57.5t27 -41 t44.5 -28.5t64.5 -8.5q25 0 45.5 4.5t36 11.5t27.5 21t19.5 26t13 33.5t8.5 37.5t4 45t1.5 47.5t0.5 52.5t-0.5 52.5t-1.5 47.5t-4 44.5t-8.5 37.5t-13 34t-19.5 25.5t-27.5 20.5t-36 11.5t-45.5 4.5q-37 0 -64.5 -8.5t-44.5 -28.5t-27 -41t-15 -57.5t-6 -65.5t-1 -77z" />
<glyph unicode="p" horiz-adv-x="1120" d="M119 -426v1442h256l24 -66q46 34 116 57t151 23q94 0 162 -26.5t108 -69.5t63.5 -113t31 -142t7.5 -171q0 -69 -3.5 -123.5t-14.5 -111.5t-28.5 -99.5t-47.5 -81t-70 -63t-97 -38.5t-128 -14q-104 0 -217 23v-393zM432 250q79 -21 148 -21q27 0 48.5 4t36.5 15.5t26 22 t17.5 33.5t10.5 38.5t5.5 49t2 54t0.5 62.5q0 160 -24.5 216t-112.5 56q-43 0 -86 -16.5t-72 -42.5v-471z" />
<glyph unicode="q" horiz-adv-x="1112" d="M78 508q0 286 110 406t383 120q179 0 422 -28v-1399l-313 -33v444q-128 -41 -248 -41q-66 0 -118 12.5t-89 34.5t-63.5 59t-42.5 78t-25.5 99t-12.5 115t-3 133zM393 508q0 -61 1 -94.5t5.5 -70.5t13 -54.5t24.5 -33.5t38.5 -21t56.5 -5q62 0 148 33v518q-35 4 -100 4 q-53 0 -87.5 -11t-54.5 -29t-30 -56t-12.5 -75.5t-2.5 -104.5z" />
<glyph unicode="r" horiz-adv-x="747" d="M119 0v1016h266l31 -107q54 48 135.5 81t161.5 44v-284q-197 -42 -281 -111v-639h-313z" />
<glyph unicode="s" horiz-adv-x="923" d="M68 29l43 235q65 -18 160 -31.5t175 -13.5q71 0 96 17.5t25 56.5q0 23 -2.5 33t-18.5 21.5t-44 19.5t-86 22q-88 22 -146 45t-95.5 48.5t-56.5 62.5t-25.5 77t-6.5 103q0 164 91.5 236.5t309.5 72.5q179 0 334 -33l-26 -233q-155 35 -283 35q-77 0 -106 -13.5t-29 -48.5 q0 -37 20.5 -51.5t106.5 -34.5q83 -19 140.5 -37t97 -42.5t62.5 -47.5t35 -60.5t15.5 -72.5t3.5 -92q0 -155 -90.5 -240.5t-300.5 -85.5q-85 0 -202.5 15t-196.5 37z" />
<glyph unicode="t" horiz-adv-x="780" d="M31 764v252h131v256l313 33v-289h244l-8 -252h-236v-440q0 -54 15.5 -73.5t58.5 -19.5q69 0 151 33l19 -252q-128 -32 -264 -32q-154 0 -223.5 69t-69.5 215v500h-131z" />
<glyph unicode="u" horiz-adv-x="1122" d="M111 279v737h313v-651q0 -50 18.5 -72.5t57.5 -22.5q78 0 190 66v680h314v-1016h-254l-31 84q-181 -104 -359 -104q-249 0 -249 299z" />
<glyph unicode="v" horiz-adv-x="1071" d="M0 1016h322l210 -688l222 688h317l-366 -1016h-351z" />
<glyph unicode="w" horiz-adv-x="1464" d="M18 1016h301l117 -610l156 456h282l154 -456l117 610h301l-234 -1016h-307l-174 539l-172 -539h-307z" />
<glyph unicode="x" horiz-adv-x="1054" d="M18 0l340 512l-329 504h331l166 -266l168 266h328l-334 -496l346 -520h-334l-174 276l-176 -276h-332z" />
<glyph unicode="y" horiz-adv-x="1058" d="M-2 1016h324l215 -656l200 656h324l-512 -1422h-305l147 398z" />
<glyph unicode="z" horiz-adv-x="940" d="M78 0v242l407 528h-401v246h774v-242l-414 -528h430v-246h-796z" />
<glyph unicode="{" horiz-adv-x="708" d="M51 471v219q93 7 115 37t22 143v326q0 97 23.5 166t62 109.5t101.5 64.5t126.5 32t153.5 9v-223q-102 -6 -140 -45.5t-38 -132.5v-334q0 -99 -41.5 -167t-122.5 -95q81 -26 122.5 -93.5t41.5 -167.5v-333q0 -93 38 -133t140 -46v-223q-90 1 -153.5 9t-126.5 32 t-101.5 64.5t-62 109.5t-23.5 166v326q0 113 -22 143t-115 37z" />
<glyph unicode="|" horiz-adv-x="505" d="M143 -422v1901h219v-1901h-219z" />
<glyph unicode="}" horiz-adv-x="708" d="M51 -193q102 6 140 46t38 133v333q0 100 41.5 168t122.5 95q-81 26 -122.5 93t-41.5 167v334q0 93 -38 132.5t-140 45.5v223q90 -1 153.5 -9t126.5 -32t101.5 -64.5t62 -109.5t23.5 -166v-326q0 -113 22 -143t115 -37v-219q-93 -7 -115 -37t-22 -143v-326 q0 -97 -23.5 -166t-62 -109.5t-101.5 -64.5t-126.5 -32t-153.5 -9v223z" />
<glyph unicode="~" horiz-adv-x="1024" d="M66 596q49 81 123.5 129.5t160.5 48.5q58 0 121 -27.5t118 -55t95 -27.5q116 0 193 108l79 -201q-103 -168 -278 -168q-48 0 -98 17.5t-84.5 39t-74.5 39t-71 17.5q-63 0 -110 -32t-95 -89z" />
<glyph unicode="&#xa2;" horiz-adv-x="899" d="M74 707q0 102 10 177t35 139.5t67.5 106t108 68t156.5 33.5v184h190v-184q61 -4 174 -23l-27 -254q-87 20 -147 25v-547q30 4 150 31l30 -254q-114 -21 -180 -27v-198h-190v196q-91 7 -157.5 34.5t-108.5 70.5t-67 108.5t-34.5 139.5t-9.5 174zM387 707 q0 -116 11.5 -172.5t52.5 -83.5v512q-38 -25 -51 -82.5t-13 -173.5z" />
<glyph unicode="&#xa3;" d="M141 221l95 35q42 48 60.5 102.5t18.5 133.5q0 45 -10 100h-164v231h121q-26 128 -26 189q0 391 466 391q193 0 394 -66l-33 -252q-176 64 -358 64q-90 0 -126 -37.5t-36 -116.5q0 -66 24 -172h381l-37 -231h-307q2 -16 2 -49q0 -128 -76 -297h578l10 -246h-682 q-110 0 -282 -14z" />
<glyph unicode="&#xa5;" d="M16 1401h342l250 -565l252 565h332l-258 -541h151v-207h-251l-54 -121h305v-202h-323v-330h-316v330h-323v202h303l-53 121h-250v207h149z" />
<glyph unicode="&#xa8;" horiz-adv-x="681" d="M-25 1300q0 40 2 61.5t9.5 42.5t24 30t42.5 14.5t68 5.5q52 0 80.5 -6.5t43 -27.5t18 -45.5t3.5 -74.5t-3.5 -74.5t-18 -45t-43 -27t-80.5 -6.5t-81 6.5t-43.5 27t-18 45t-3.5 74.5zM416 1300q0 50 3.5 74.5t18 45.5t43 27.5t80.5 6.5q42 0 68 -5.5t42.5 -14.5t24 -30 t9.5 -42.5t2 -61.5q0 -50 -3.5 -74.5t-18 -45t-43.5 -27t-81 -6.5t-80.5 6.5t-43 27t-18 45t-3.5 74.5z" />
<glyph unicode="&#xa9;" horiz-adv-x="1605" d="M82 700q0 160 46 292t135 228.5t227 149.5t313 53t312.5 -53t226.5 -149.5t135.5 -228.5t46.5 -292t-46.5 -292t-135.5 -228.5t-226.5 -149.5t-312.5 -53t-313 53t-227 149.5t-135 228.5t-46 292zM295 700q0 -118 28.5 -210.5t87.5 -162.5t158.5 -107.5t233.5 -37.5 t233 37.5t158.5 107.5t88 163t28.5 210t-28.5 210.5t-88 164t-158.5 108.5t-233 38t-233.5 -38t-158.5 -108.5t-87.5 -163.5t-28.5 -211zM477 717q0 98 15 163.5t53 114t106 70.5t172 22q123 0 219 -26l-20 -184q-110 30 -197 30q-71 0 -98 -33t-27 -133q0 -45 0.5 -68 t2 -53.5t5 -43.5t10 -30.5t15.5 -23.5t23 -13.5t32 -9t43 -1.5q98 0 193 28l20 -182q-89 -29 -213 -29q-56 0 -102 6.5t-80.5 16.5t-61 28.5t-44.5 36.5t-30.5 48t-19.5 54.5t-10.5 64t-4.5 70t-1 77.5z" />
<glyph unicode="&#xab;" horiz-adv-x="1193" d="M88 436v127l311 375l185 -174l-219 -264l219 -264l-185 -175zM600 436v127l311 375l185 -174l-219 -264l219 -264l-185 -175z" />
<glyph unicode="&#xad;" horiz-adv-x="745" d="M76 422v268h594v-268h-594z" />
<glyph unicode="&#xae;" horiz-adv-x="1282" d="M86 887q0 126 34 227.5t101.5 175.5t174 114t245.5 40t245.5 -40t174 -114t101.5 -175.5t34 -227.5q0 -259 -140 -409t-415 -150t-415 150t-140 409zM262 887q0 -73 10.5 -130t37 -107.5t69 -84t108.5 -52.5t154 -19q108 0 184 28t118 82.5t60.5 123t18.5 159.5 q0 72 -11 129t-38 107t-69.5 83.5t-109 52.5t-153.5 19q-109 0 -185 -28t-117.5 -82.5t-59 -122t-17.5 -158.5zM420 604v574h266q94 0 132 -48t38 -137q0 -138 -86 -176l133 -213h-174l-125 199h-29v-199h-155zM575 930h74q33 0 44.5 11t11.5 48q0 38 -10.5 49t-43.5 11h-76 v-119z" />
<glyph unicode="&#xb4;" horiz-adv-x="681" d="M168 1305l432 223l14 -230l-397 -176z" />
<glyph unicode="&#xb8;" horiz-adv-x="681" d="M137 -401l33 149q84 -22 178 -22q22 0 28.5 3.5t6.5 18.5v33q0 15 -6.5 18.5t-32.5 3.5q-22 0 -43 -6l-98 47l47 160h160l-19 -72q107 -5 158 -32t51 -101v-80q0 -89 -55.5 -116t-190.5 -27q-90 0 -217 23z" />
<glyph unicode="&#xbb;" horiz-adv-x="1193" d="M98 236l219 264l-219 264l185 174l311 -375v-127l-311 -375zM610 236l219 264l-219 264l185 174l311 -375v-127l-311 -375z" />
<glyph unicode="&#xc1;" horiz-adv-x="1292" d="M4 0l457 1401h379l446 -1401h-338l-84 301h-442l-88 -301h-330zM463 1661l432 223l14 -229l-397 -176zM496 559h292l-143 516z" />
<glyph unicode="&#xc9;" horiz-adv-x="1101" d="M125 0v1401h887v-275h-566v-268h502v-274h-502v-310h566v-274h-887zM369 1661l432 223l14 -229l-397 -176z" />
<glyph unicode="&#xcd;" horiz-adv-x="587" d="M113 1661l432 223l14 -229l-397 -176zM133 0v1401h322v-1401h-322z" />
<glyph unicode="&#xd3;" horiz-adv-x="1318" d="M96 623v155q0 80 4.5 142t18.5 132t38.5 121.5t67 101t100.5 80t143 49.5t191 19q83 0 153 -11.5t123 -31t96 -50.5t72.5 -65t51.5 -80t35 -90t20.5 -100t10 -106t2.5 -111v-155q0 -80 -4.5 -142t-18.5 -132t-38.5 -121.5t-67 -101t-101 -80.5t-143.5 -50t-191 -19 q-83 0 -153 11.5t-123 31t-95.5 50.5t-72.5 65.5t-51.5 80.5t-34.5 90t-20.5 100t-10 106t-2.5 111zM422 623q0 -62 1.5 -101t6.5 -83t15 -69.5t27 -51t42.5 -38t61 -20.5t83.5 -8t83.5 8t61 20.5t42.5 38t27.5 51t15.5 69t6.5 83t1.5 101.5v155q0 62 -1.5 101.5t-6.5 83 t-15.5 69t-27.5 51t-42.5 38t-61 20.5t-83.5 8t-83.5 -8t-61 -20.5t-42.5 -38t-27 -51t-15 -69.5t-6.5 -83t-1.5 -101v-155zM477 1661l432 223l15 -229l-398 -176z" />
<glyph unicode="&#xd6;" horiz-adv-x="1318" d="M96 623v155q0 80 4.5 142t18.5 132t38.5 121.5t67 101t100.5 80t143 49.5t191 19q83 0 153 -11.5t123 -31t96 -50.5t72.5 -65t51.5 -80t35 -90t20.5 -100t10 -106t2.5 -111v-155q0 -80 -4.5 -142t-18.5 -132t-38.5 -121.5t-67 -101t-101 -80.5t-143.5 -50t-191 -19 q-83 0 -153 11.5t-123 31t-95.5 50.5t-72.5 65.5t-51.5 80.5t-34.5 90t-20.5 100t-10 106t-2.5 111zM293 1657q0 50 3.5 74.5t18 45t43 27t80.5 6.5t81 -6.5t43.5 -27t18 -45t3.5 -74.5q0 -40 -2 -61.5t-9.5 -42.5t-24 -30t-42.5 -14.5t-68 -5.5q-52 0 -80.5 6.5t-43 27.5 t-18 45.5t-3.5 74.5zM422 623q0 -62 1.5 -101t6.5 -83t15 -69.5t27 -51t42.5 -38t61 -20.5t83.5 -8t83.5 8t61 20.5t42.5 38t27.5 51t15.5 69t6.5 83t1.5 101.5v155q0 62 -1.5 101.5t-6.5 83t-15.5 69t-27.5 51t-42.5 38t-61 20.5t-83.5 8t-83.5 -8t-61 -20.5t-42.5 -38 t-27 -51t-15 -69.5t-6.5 -83t-1.5 -101v-155zM733 1657q0 50 3.5 74.5t18 45t43.5 27t81 6.5t80.5 -6.5t43 -27t18 -45t3.5 -74.5t-3.5 -74.5t-18 -45.5t-43 -27.5t-80.5 -6.5q-42 0 -68 5.5t-42.5 14.5t-24 30t-9.5 42.5t-2 61.5z" />
<glyph unicode="&#xda;" horiz-adv-x="1306" d="M115 485v916h321v-901q0 -129 47.5 -184.5t169.5 -55.5t168.5 55t46.5 185v901h322v-916q0 -88 -16.5 -161.5t-55.5 -138.5t-99.5 -110.5t-153.5 -71.5t-212 -26t-212 26t-154 71.5t-100 110.5t-55.5 138.5t-16.5 161.5zM471 1661l432 223l15 -229l-398 -176z" />
<glyph unicode="&#xdc;" horiz-adv-x="1306" d="M115 485v916h321v-901q0 -129 47.5 -184.5t169.5 -55.5t168.5 55t46.5 185v901h322v-916q0 -88 -16.5 -161.5t-55.5 -138.5t-99.5 -110.5t-153.5 -71.5t-212 -26t-212 26t-154 71.5t-100 110.5t-55.5 138.5t-16.5 161.5zM287 1657q0 50 3.5 74.5t18 45t43 27t80.5 6.5 t81 -6.5t43.5 -27t18 -45t3.5 -74.5q0 -40 -2 -61.5t-9.5 -42.5t-24 -30t-42.5 -14.5t-68 -5.5q-52 0 -80.5 6.5t-43 27.5t-18 45.5t-3.5 74.5zM727 1657q0 50 3.5 74.5t18 45t43 27t80.5 6.5t81 -6.5t43.5 -27t18 -45t3.5 -74.5q0 -40 -2 -61.5t-9.5 -42.5t-24 -30 t-42.5 -14.5t-68 -5.5q-52 0 -80.5 6.5t-43 27.5t-18 45.5t-3.5 74.5z" />
<glyph unicode="&#xe1;" horiz-adv-x="1048" d="M80 279q0 81 16 136.5t46 91.5t84.5 56t120 27.5t163.5 7.5q72 0 119 -2v55q0 38 -4 59.5t-19.5 43t-48.5 30.5t-88 9q-150 0 -311 -48l-19 238q71 21 180 36t213 15q236 0 323 -85.5t87 -313.5v-635h-268l-25 76q-160 -96 -303 -96q-126 0 -196 79.5t-70 219.5z M322 1305l432 223l14 -230l-397 -176zM381 299q0 -46 18.5 -68t61.5 -22q84 0 168 53v133q-31 2 -58 2q-118 0 -154 -16t-36 -82z" />
<glyph unicode="&#xe9;" horiz-adv-x="1034" d="M78 500q0 97 9 169.5t37.5 144.5t77.5 118t132 74t198 28q119 0 200.5 -31.5t128.5 -95.5t67 -150t20 -206v-148h-557v-8q0 -104 40 -140t138 -36q156 0 346 53l23 -239q-205 -56 -412 -56q-128 0 -215.5 33.5t-138.5 102.5t-72.5 162.5t-21.5 224.5zM334 1305l432 223 l14 -230l-397 -176zM391 602h260v23q0 91 -28 131.5t-97 40.5q-79 0 -107 -45t-28 -129v-21z" />
<glyph unicode="&#xed;" horiz-adv-x="563" d="M100 1305l432 223l15 -230l-397 -176zM125 0v1016h313v-1016h-313z" />
<glyph unicode="&#xf3;" horiz-adv-x="1097" d="M78 508q0 95 12 170t44 144t83.5 114.5t135.5 72.5t196 27t195.5 -27t135 -72t83 -114.5t43.5 -144t12 -170.5t-12 -171t-43.5 -144t-83 -114.5t-135 -72t-195.5 -26.5t-196 27t-135.5 72.5t-83.5 114.5t-44 144t-12 170zM367 1305l432 223l14 -230l-397 -176zM391 508 q0 -49 1 -78t6 -65.5t15 -57.5t27 -41t44.5 -28.5t64.5 -8.5q25 0 45.5 4.5t36 11.5t27.5 21t19.5 26t13 33.5t8.5 37.5t4 45t1.5 47.5t0.5 52.5t-0.5 52.5t-1.5 47.5t-4 44.5t-8.5 37.5t-13 34t-19.5 25.5t-27.5 20.5t-36 11.5t-45.5 4.5q-37 0 -64.5 -8.5t-44.5 -28.5 t-27 -41t-15 -57.5t-6 -65.5t-1 -77z" />
<glyph unicode="&#xf6;" horiz-adv-x="1097" d="M78 508q0 95 12 170t44 144t83.5 114.5t135.5 72.5t196 27t195.5 -27t135 -72t83 -114.5t43.5 -144t12 -170.5t-12 -171t-43.5 -144t-83 -114.5t-135 -72t-195.5 -26.5t-196 27t-135.5 72.5t-83.5 114.5t-44 144t-12 170zM182 1300q0 40 2 61.5t9.5 42.5t24 30t42.5 14.5 t68 5.5q52 0 80.5 -6.5t43 -27.5t18 -45.5t3.5 -74.5t-3.5 -74.5t-18 -45t-43 -27t-80.5 -6.5t-81 6.5t-43.5 27t-18 45t-3.5 74.5zM391 508q0 -49 1 -78t6 -65.5t15 -57.5t27 -41t44.5 -28.5t64.5 -8.5q25 0 45.5 4.5t36 11.5t27.5 21t19.5 26t13 33.5t8.5 37.5t4 45 t1.5 47.5t0.5 52.5t-0.5 52.5t-1.5 47.5t-4 44.5t-8.5 37.5t-13 34t-19.5 25.5t-27.5 20.5t-36 11.5t-45.5 4.5q-37 0 -64.5 -8.5t-44.5 -28.5t-27 -41t-15 -57.5t-6 -65.5t-1 -77zM623 1300q0 50 3.5 74.5t18 45.5t43 27.5t80.5 6.5t80.5 -6.5t43 -27.5t18 -45.5t3.5 -74.5 t-3.5 -74.5t-18 -45t-43 -27t-80.5 -6.5t-80.5 6.5t-43 27t-18 45t-3.5 74.5z" />
<glyph unicode="&#xfa;" horiz-adv-x="1122" d="M111 279v737h313v-651q0 -50 18.5 -72.5t57.5 -22.5q78 0 190 66v680h314v-1016h-254l-31 84q-181 -104 -359 -104q-249 0 -249 299zM379 1305l432 223l14 -230l-397 -176z" />
<glyph unicode="&#xfc;" horiz-adv-x="1122" d="M111 279v737h313v-651q0 -50 18.5 -72.5t57.5 -22.5q78 0 190 66v680h314v-1016h-254l-31 84q-181 -104 -359 -104q-249 0 -249 299zM195 1300q0 50 3.5 74.5t18 45.5t43 27.5t80.5 6.5t80.5 -6.5t43 -27.5t18 -45.5t3.5 -74.5t-3.5 -74.5t-18 -45t-43 -27t-80.5 -6.5 t-80.5 6.5t-43 27t-18 45t-3.5 74.5zM635 1300q0 50 3.5 74.5t18 45.5t43 27.5t80.5 6.5q42 0 68 -5.5t42.5 -14.5t24 -30t9.5 -42.5t2 -61.5q0 -50 -3.5 -74.5t-18 -45t-43.5 -27t-81 -6.5t-80.5 6.5t-43 27t-18 45t-3.5 74.5z" />
<glyph unicode="&#x150;" horiz-adv-x="1318" d="M96 623v155q0 80 4.5 142t18.5 132t38.5 121.5t67 101t100.5 80t143 49.5t191 19q83 0 153 -11.5t123 -31t96 -50.5t72.5 -65t51.5 -80t35 -90t20.5 -100t10 -106t2.5 -111v-155q0 -80 -4.5 -142t-18.5 -132t-38.5 -121.5t-67 -101t-101 -80.5t-143.5 -50t-191 -19 q-83 0 -153 11.5t-123 31t-95.5 50.5t-72.5 65.5t-51.5 80.5t-34.5 90t-20.5 100t-10 106t-2.5 111zM276 1540l242 315l203 -73l-287 -322zM422 623q0 -62 1.5 -101t6.5 -83t15 -69.5t27 -51t42.5 -38t61 -20.5t83.5 -8t83.5 8t61 20.5t42.5 38t27.5 51t15.5 69t6.5 83 t1.5 101.5v155q0 62 -1.5 101.5t-6.5 83t-15.5 69t-27.5 51t-42.5 38t-61 20.5t-83.5 8t-83.5 -8t-61 -20.5t-42.5 -38t-27 -51t-15 -69.5t-6.5 -83t-1.5 -101v-155zM680 1540l242 315l202 -73l-286 -322z" />
<glyph unicode="&#x151;" horiz-adv-x="1097" d="M78 508q0 95 12 170t44 144t83.5 114.5t135.5 72.5t196 27t195.5 -27t135 -72t83 -114.5t43.5 -144t12 -170.5t-12 -171t-43.5 -144t-83 -114.5t-135 -72t-195.5 -26.5t-196 27t-135.5 72.5t-83.5 114.5t-44 144t-12 170zM166 1184l242 315l202 -74l-286 -321zM391 508 q0 -49 1 -78t6 -65.5t15 -57.5t27 -41t44.5 -28.5t64.5 -8.5q25 0 45.5 4.5t36 11.5t27.5 21t19.5 26t13 33.5t8.5 37.5t4 45t1.5 47.5t0.5 52.5t-0.5 52.5t-1.5 47.5t-4 44.5t-8.5 37.5t-13 34t-19.5 25.5t-27.5 20.5t-36 11.5t-45.5 4.5q-37 0 -64.5 -8.5t-44.5 -28.5 t-27 -41t-15 -57.5t-6 -65.5t-1 -77zM569 1184l242 315l203 -74l-287 -321z" />
<glyph unicode="&#x170;" horiz-adv-x="1306" d="M115 485v916h321v-901q0 -129 47.5 -184.5t169.5 -55.5t168.5 55t46.5 185v901h322v-916q0 -88 -16.5 -161.5t-55.5 -138.5t-99.5 -110.5t-153.5 -71.5t-212 -26t-212 26t-154 71.5t-100 110.5t-55.5 138.5t-16.5 161.5zM270 1540l242 315l203 -73l-287 -322zM674 1540 l241 315l203 -73l-287 -322z" />
<glyph unicode="&#x171;" horiz-adv-x="1122" d="M111 279v737h313v-651q0 -50 18.5 -72.5t57.5 -22.5q78 0 190 66v680h314v-1016h-254l-31 84q-181 -104 -359 -104q-249 0 -249 299zM178 1184l242 315l203 -74l-287 -321zM582 1184l241 315l203 -74l-287 -321z" />
<glyph unicode="&#x2c6;" horiz-adv-x="681" d="M8 1286l326 225l338 -227l-62 -162l-276 152l-279 -154z" />
<glyph unicode="&#x2da;" horiz-adv-x="681" d="M129 1305q0 91 58 146.5t153 55.5q98 0 155.5 -55.5t57.5 -146.5t-57.5 -147t-155.5 -56q-96 0 -153.5 55t-57.5 148zM262 1305q0 -82 78 -82q82 0 82 82q0 84 -82 84q-38 0 -58 -22t-20 -62z" />
<glyph unicode="&#x2dc;" horiz-adv-x="681" d="M4 1319q40 48 97 81.5t112 33.5q51 0 101.5 -18.5t91 -37t67.5 -18.5q89 0 139 74l64 -154q-29 -56 -85.5 -87.5t-123.5 -31.5q-61 0 -136.5 36t-113.5 36q-69 0 -154 -76z" />
<glyph unicode="&#x2000;" horiz-adv-x="942" />
<glyph unicode="&#x2001;" horiz-adv-x="1884" />
<glyph unicode="&#x2002;" horiz-adv-x="942" />
<glyph unicode="&#x2003;" horiz-adv-x="1884" />
<glyph unicode="&#x2004;" horiz-adv-x="628" />
<glyph unicode="&#x2005;" horiz-adv-x="471" />
<glyph unicode="&#x2006;" horiz-adv-x="314" />
<glyph unicode="&#x2007;" horiz-adv-x="314" />
<glyph unicode="&#x2008;" horiz-adv-x="235" />
<glyph unicode="&#x2009;" horiz-adv-x="376" />
<glyph unicode="&#x200a;" horiz-adv-x="104" />
<glyph unicode="&#x2010;" horiz-adv-x="745" d="M76 422v268h594v-268h-594z" />
<glyph unicode="&#x2011;" horiz-adv-x="745" d="M76 422v268h594v-268h-594z" />
<glyph unicode="&#x2012;" horiz-adv-x="745" d="M76 422v268h594v-268h-594z" />
<glyph unicode="&#x2013;" horiz-adv-x="1024" d="M-6 453v227h1036v-227h-1036z" />
<glyph unicode="&#x2014;" horiz-adv-x="1705" d="M-6 453v227h1722v-227h-1722z" />
<glyph unicode="&#x2018;" horiz-adv-x="536" d="M98 1036v54q0 62 23 116l90 209q11 24 29 31.5t47 7.5q18 0 67 -18q55 -22 68.5 -33t13.5 -31q0 -19 -12 -47l-41 -106q-6 -15 -6 -29q0 -13 10 -19q39 -23 39 -135q0 -39 -1.5 -60.5t-6.5 -45t-15.5 -34.5t-29 -21t-45.5 -13.5t-66 -3.5t-66 3.5t-45.5 13.5t-29 21 t-15.5 34.5t-6.5 45t-1.5 60.5z" />
<glyph unicode="&#x2019;" horiz-adv-x="536" d="M98 911q0 17 13 47l41 107q6 15 6 29q0 11 -11 18q-38 23 -38 135q0 39 1 60.5t6.5 45t15.5 34.5t28.5 21t45.5 13.5t66 3.5t66 -3.5t45.5 -13.5t29 -21t15.5 -34.5t6.5 -45t1.5 -60.5v-53q0 -65 -22 -117l-90 -209q-11 -24 -29 -31.5t-47 -7.5q-16 0 -68 19 q-56 23 -69 33.5t-13 29.5z" />
<glyph unicode="&#x201a;" horiz-adv-x="536" d="M98 -174q0 17 13 47l41 107q6 15 6 28q0 12 -11 19q-38 23 -38 135q0 39 1 60.5t6.5 45t15.5 34.5t28.5 21t45.5 13.5t66 3.5t66 -3.5t45.5 -13.5t29 -21t15.5 -34.5t6.5 -45t1.5 -60.5v-53q0 -65 -22 -117l-90 -209q-11 -24 -29 -31.5t-47 -7.5q-19 0 -68 18 q-55 22 -68.5 33t-13.5 31z" />
<glyph unicode="&#x201c;" horiz-adv-x="1024" d="M98 1036v54q0 62 23 116l90 209q11 24 29 31.5t47 7.5q18 0 67 -18q55 -22 68.5 -33t13.5 -31q0 -19 -12 -47l-41 -106q-6 -15 -6 -29q0 -13 10 -19q39 -23 39 -135q0 -39 -1.5 -60.5t-6.5 -45t-15.5 -34.5t-29 -21t-45.5 -13.5t-66 -3.5t-66 3.5t-45.5 13.5t-29 21 t-15.5 34.5t-6.5 45t-1.5 60.5zM586 1036v54q0 64 22 116l90 209q11 24 29 31.5t47 7.5q19 0 68 -18q55 -22 68.5 -33t13.5 -31q0 -17 -13 -47l-41 -106q-6 -15 -6 -29q0 -13 10 -19q39 -23 39 -135q0 -39 -1 -60.5t-6.5 -45t-15.5 -34.5t-28.5 -21t-45.5 -13.5t-66 -3.5 t-66 3.5t-45.5 13.5t-29 21t-15.5 34.5t-6.5 45t-1.5 60.5z" />
<glyph unicode="&#x201d;" horiz-adv-x="1024" d="M98 911q0 17 13 47l41 107q6 15 6 29q0 11 -11 18q-38 23 -38 135q0 39 1 60.5t6.5 45t15.5 34.5t28.5 21t45.5 13.5t66 3.5t66 -3.5t45.5 -13.5t29 -21t15.5 -34.5t6.5 -45t1.5 -60.5v-53q0 -65 -22 -117l-90 -209q-11 -24 -29 -31.5t-47 -7.5q-16 0 -68 19 q-56 23 -69 33.5t-13 29.5zM586 911q0 19 12 47l41 107q6 15 6 29q0 12 -10 18q-39 23 -39 135q0 39 1.5 60.5t6.5 45t15.5 34.5t29 21t45.5 13.5t66 3.5t66 -3.5t45.5 -13.5t29 -21t15.5 -34.5t6.5 -45t1.5 -60.5v-53q0 -63 -23 -117l-90 -209q-11 -24 -29 -31.5t-47 -7.5 q-15 0 -67 19q-56 23 -69 33.5t-13 29.5z" />
<glyph unicode="&#x201e;" horiz-adv-x="1024" d="M98 -174q0 17 13 47l41 107q6 15 6 28q0 12 -11 19q-38 23 -38 135q0 39 1 60.5t6.5 45t15.5 34.5t28.5 21t45.5 13.5t66 3.5t66 -3.5t45.5 -13.5t29 -21t15.5 -34.5t6.5 -45t1.5 -60.5v-53q0 -65 -22 -117l-90 -209q-11 -24 -29 -31.5t-47 -7.5q-19 0 -68 18 q-55 22 -68.5 33t-13.5 31zM586 -174q0 19 12 47l41 107q6 15 6 28t-10 19q-39 23 -39 135q0 39 1.5 60.5t6.5 45t15.5 34.5t29 21t45.5 13.5t66 3.5t66 -3.5t45.5 -13.5t29 -21t15.5 -34.5t6.5 -45t1.5 -60.5v-53q0 -63 -23 -117l-90 -209q-11 -24 -29 -31.5t-47 -7.5 q-18 0 -67 18q-55 22 -68.5 33t-13.5 31z" />
<glyph unicode="&#x2026;" horiz-adv-x="1705" d="M121 162q0 39 1.5 60.5t6.5 45t15.5 34.5t29 21t45.5 13.5t66 3.5t66 -3.5t45.5 -13.5t29 -21t15.5 -34.5t6.5 -45t1.5 -60.5t-1.5 -60.5t-6.5 -45t-15.5 -34.5t-29 -21t-45.5 -13.5t-66 -3.5t-66 3.5t-45.5 13.5t-29 21t-15.5 34.5t-6.5 45t-1.5 60.5zM688 162 q0 39 1.5 60.5t6.5 45t15.5 34.5t29 21t45.5 13.5t66 3.5t66 -3.5t45.5 -13.5t29 -21t15.5 -34.5t6.5 -45t1.5 -60.5t-1.5 -60.5t-6.5 -45t-15.5 -34.5t-29 -21t-45.5 -13.5t-66 -3.5t-66 3.5t-45.5 13.5t-29 21t-15.5 34.5t-6.5 45t-1.5 60.5zM1257 162q0 39 1.5 60.5 t6.5 45t15.5 34.5t29 21t45.5 13.5t66 3.5t66 -3.5t45.5 -13.5t29 -21t15.5 -34.5t6.5 -45t1.5 -60.5t-1.5 -60.5t-6.5 -45t-15.5 -34.5t-29 -21t-45.5 -13.5t-66 -3.5t-66 3.5t-45.5 13.5t-29 21t-15.5 34.5t-6.5 45t-1.5 60.5z" />
<glyph unicode="&#x202f;" horiz-adv-x="376" />
<glyph unicode="&#x2039;" horiz-adv-x="681" d="M88 436v127l311 375l185 -174l-219 -264l219 -264l-185 -175z" />
<glyph unicode="&#x203a;" horiz-adv-x="681" d="M98 236l219 264l-219 264l185 174l311 -375v-127l-311 -375z" />
<glyph unicode="&#x205f;" horiz-adv-x="471" />
<glyph unicode="&#x20ac;" d="M72 442l32 189h136v106h-168l32 187h144q9 115 38.5 198.5t87.5 149t155.5 98.5t234.5 33q186 0 364 -45l-30 -271q-185 48 -328 48q-103 0 -153 -48.5t-60 -162.5h459l-33 -187h-432v-106h422l-33 -189h-383q11 -105 64 -150.5t167 -45.5q151 0 330 47l29 -266 q-172 -50 -359 -50q-118 0 -208 22t-149 60.5t-98.5 98t-58.5 127.5t-26 157h-176z" />
<glyph unicode="&#x2122;" horiz-adv-x="1224" d="M63 1272v129h431v-129h-136v-410h-159v410h-136zM590 862v539h155l123 -266l121 266h158v-539h-158v219l-63 -143h-117l-64 141v-217h-155z" />
<glyph unicode="&#x25fc;" horiz-adv-x="1013" d="M0 0v1014h1014v-1014h-1014z" />
</font>
</defs>
</svg>
